<svg width="36" height="36" viewBox="0 0 36 36" fill="none" xmlns="http://www.w3.org/2000/svg">
<path d="M13.5 18H11.25V15.75H13.5V18ZM22.5 18H20.25V15.75H22.5V18ZM31.5 15.75V20.25H29.25V25.875C29.25 26.3438 29.1621 26.7832 28.9863 27.1934C28.8105 27.6035 28.5703 27.9609 28.2656 28.2656C27.9609 28.5703 27.6035 28.8105 27.1934 28.9863C26.7832 29.1621 26.3438 29.25 25.875 29.25H21.2344L13.5 35.8594V29.25H7.875C7.40625 29.25 6.9668 29.1621 6.55664 28.9863C6.14648 28.8105 5.78906 28.5703 5.48438 28.2656C5.17969 27.9609 4.93945 27.6035 4.76367 27.1934C4.58789 26.7832 4.5 26.3438 4.5 25.875V20.25H2.25V15.75H4.5V12.375C4.5 11.9062 4.58789 11.4668 4.76367 11.0566C4.93945 10.6465 5.17969 10.2891 5.48438 9.98438C5.78906 9.67969 6.14648 9.43945 6.55664 9.26367C6.9668 9.08789 7.40625 9 7.875 9H15.75V5.32617C15.4102 5.12695 15.1406 4.85156 14.9414 4.5C14.7422 4.14844 14.6367 3.77344 14.625 3.375C14.625 3.05859 14.6836 2.76562 14.8008 2.49609C14.918 2.22656 15.0762 1.99219 15.2754 1.79297C15.4746 1.59375 15.7148 1.42969 15.9961 1.30078C16.2773 1.17187 16.5703 1.11328 16.875 1.125C17.1914 1.125 17.4844 1.18359 17.7539 1.30078C18.0234 1.41797 18.2578 1.57617 18.457 1.77539C18.6562 1.97461 18.8203 2.21484 18.9492 2.49609C19.0781 2.77734 19.1367 3.07031 19.125 3.375C19.125 3.77344 19.0254 4.14844 18.8262 4.5C18.627 4.85156 18.3516 5.12695 18 5.32617V9H25.875C26.3438 9 26.7832 9.08789 27.1934 9.26367C27.6035 9.43945 27.9609 9.67969 28.2656 9.98438C28.5703 10.2891 28.8105 10.6465 28.9863 11.0566C29.1621 11.4668 29.25 11.9062 29.25 12.375V15.75H31.5ZM27 12.375C27 12.0703 26.8887 11.8066 26.666 11.584C26.4434 11.3613 26.1797 11.25 25.875 11.25H7.875C7.57031 11.25 7.30664 11.3613 7.08398 11.584C6.86133 11.8066 6.75 12.0703 6.75 12.375V25.875C6.75 26.1797 6.86133 26.4434 7.08398 26.666C7.30664 26.8887 7.57031 27 7.875 27H15.75V30.9727L20.3906 27H25.875C26.1797 27 26.4434 26.8887 26.666 26.666C26.8887 26.4434 27 26.1797 27 25.875V12.375ZM12.041 20.4961C12.6855 21.1406 13.4238 21.6328 14.2559 21.9727C15.0879 22.3125 15.9609 22.4883 16.875 22.5C17.7891 22.5 18.6621 22.3301 19.4941 21.9902C20.3262 21.6504 21.0645 21.1523 21.709 20.4961L23.291 22.0957C22.4355 22.9512 21.457 23.6074 20.3555 24.0645C19.2539 24.5215 18.0938 24.75 16.875 24.75C15.668 24.75 14.5137 24.5215 13.4121 24.0645C12.3105 23.6074 11.3262 22.9512 10.459 22.0957L12.041 20.4961Z" fill="black"/>
</svg>
