<svg width="17" height="17" viewBox="0 0 17 17" fill="none" xmlns="http://www.w3.org/2000/svg">
<g clip-path="url(#clip0_3_85)">
<path d="M15.9375 1.59172L11.6838 1.59174V0.532959C11.6838 0.239443 11.446 0.00170898 11.1525 0.00170898C10.859 0.00170898 10.6213 0.239443 10.6213 0.532959V1.59147H6.37128V0.532959C6.37128 0.239443 6.13355 0.00170898 5.84003 0.00170898C5.54652 0.00170898 5.30878 0.239443 5.30878 0.532959V1.59147H1.0625C0.475734 1.59147 0 2.06721 0 2.65397V15.9352C0 16.522 0.475734 16.9977 1.0625 16.9977H15.9375C16.5243 16.9977 17 16.522 17 15.9352V2.65397C17 2.06746 16.5243 1.59172 15.9375 1.59172ZM15.9375 15.9352H1.0625V2.65397H5.30878V3.18921C5.30878 3.48271 5.54652 3.72046 5.84003 3.72046C6.13355 3.72046 6.37128 3.48271 6.37128 3.18921V2.65424H10.6213V3.18947C10.6213 3.48299 10.859 3.72072 11.1525 3.72072C11.446 3.72072 11.6838 3.48299 11.6838 3.18947V2.65424H15.9375V15.9352ZM12.2188 8.49797H13.2812C13.5745 8.49797 13.8125 8.25997 13.8125 7.96672V6.90422C13.8125 6.61097 13.5745 6.37297 13.2812 6.37297H12.2188C11.9255 6.37297 11.6875 6.61097 11.6875 6.90422V7.96672C11.6875 8.25997 11.9255 8.49797 12.2188 8.49797ZM12.2188 12.7477H13.2812C13.5745 12.7477 13.8125 12.51 13.8125 12.2165V11.154C13.8125 10.8607 13.5745 10.6227 13.2812 10.6227H12.2188C11.9255 10.6227 11.6875 10.8607 11.6875 11.154V12.2165C11.6875 12.5102 11.9255 12.7477 12.2188 12.7477ZM9.03125 10.6227H7.96875C7.6755 10.6227 7.4375 10.8607 7.4375 11.154V12.2165C7.4375 12.51 7.6755 12.7477 7.96875 12.7477H9.03125C9.3245 12.7477 9.5625 12.51 9.5625 12.2165V11.154C9.5625 10.861 9.3245 10.6227 9.03125 10.6227ZM9.03125 6.37297H7.96875C7.6755 6.37297 7.4375 6.61097 7.4375 6.90422V7.96672C7.4375 8.25997 7.6755 8.49797 7.96875 8.49797H9.03125C9.3245 8.49797 9.5625 8.25997 9.5625 7.96672V6.90422C9.5625 6.61071 9.3245 6.37297 9.03125 6.37297ZM4.78125 6.37297H3.71875C3.4255 6.37297 3.1875 6.61097 3.1875 6.90422V7.96672C3.1875 8.25997 3.4255 8.49797 3.71875 8.49797H4.78125C5.0745 8.49797 5.3125 8.25997 5.3125 7.96672V6.90422C5.3125 6.61071 5.0745 6.37297 4.78125 6.37297ZM4.78125 10.6227H3.71875C3.4255 10.6227 3.1875 10.8607 3.1875 11.154V12.2165C3.1875 12.51 3.4255 12.7477 3.71875 12.7477H4.78125C5.0745 12.7477 5.3125 12.51 5.3125 12.2165V11.154C5.3125 10.861 5.0745 10.6227 4.78125 10.6227Z" fill="#81C784"/>
</g>
<defs>
<clipPath id="clip0_3_85">
<rect width="17" height="17" fill="white"/>
</clipPath>
</defs>
</svg>
