<svg width="20" height="27" viewBox="0 0 20 27" fill="none" xmlns="http://www.w3.org/2000/svg">
<g clip-path="url(#clip0_22_4)">
<path d="M2.86975 3.8707C2.21871 3.21152 1.16142 3.21152 0.510376 3.8707C-0.140666 4.52988 -0.140666 5.60039 0.510376 6.25957L7.66663 13.5L0.515584 20.7457C-0.135457 21.4049 -0.135457 22.4754 0.515584 23.1346C1.16663 23.7938 2.22392 23.7938 2.87496 23.1346L10.026 15.8889L17.1823 23.1293C17.8333 23.7885 18.8906 23.7885 19.5416 23.1293C20.1927 22.4701 20.1927 21.3996 19.5416 20.7404L12.3854 13.5L19.5364 6.2543C20.1875 5.59512 20.1875 4.52461 19.5364 3.86543C18.8854 3.20625 17.8281 3.20625 17.177 3.86543L10.026 11.1111L2.86975 3.8707Z" fill="black"/>
</g>
<defs>
<clipPath id="clip0_22_4">
<rect width="20" height="27" fill="white"/>
</clipPath>
</defs>
</svg>
