<svg width="40" height="40" viewBox="0 0 40 40" fill="none" xmlns="http://www.w3.org/2000/svg">
<path fill-rule="evenodd" clip-rule="evenodd" d="M21.6358 18.35H18.9358V17.5608H19.8192C20.4142 17.5608 20.985 17.3375 21.4067 16.9392C21.6134 16.7468 21.7789 16.5144 21.8931 16.2561C22.0073 15.9979 22.0677 15.7191 22.0708 15.4367V14.0417C22.0708 14.1 22.4358 14.0658 22.61 14.05C22.7019 14.0488 22.7925 14.0281 22.8758 13.9893C22.9591 13.9506 23.0333 13.8945 23.0933 13.825C23.1933 13.7083 23.2433 13.5608 23.235 13.4108C23.1975 13.1844 23.1196 12.9664 23.005 12.7675L22.6983 12.0275C22.4773 11.5168 22.264 11.0029 22.0583 10.4858C22.0583 10.4858 21.93 9.27251 21.815 8.86084C21.4479 7.73644 20.7256 6.7617 19.7567 6.08334C18.7625 5.38466 17.5784 5.00665 16.3633 5.00001C15.1876 4.9969 14.0375 5.34417 13.06 5.99751C12.1063 6.63336 11.3789 7.55536 10.9825 8.63084C10.5963 9.68841 10.569 10.8437 10.905 11.9183C11.2512 13.0083 11.9349 13.96 12.8575 14.6358V18.3492H10.5025C9.06917 18.3458 7.69 18.8742 6.66083 19.8225C5.63333 20.7708 5.0375 22.0625 5 23.4225V35H27.4967V24.2108C27.5219 23.4583 27.3899 22.7087 27.1092 22.01C26.8233 21.3021 26.3972 20.6592 25.8567 20.12C25.3051 19.5704 24.6519 19.1334 23.9333 18.8333C23.2049 18.5285 22.4253 18.3645 21.6358 18.35ZM17.3808 26.6633C17.0601 26.651 16.7419 26.6001 16.4333 26.5117C16.2237 26.4518 16.0222 26.3664 15.8333 26.2575C15.6445 26.3664 15.443 26.4518 15.2333 26.5117C14.8977 26.6082 14.5508 26.6603 14.2017 26.6667H14.1983C14.2533 28.225 14.2758 30.245 13.3808 31.1383C12.2058 32.31 9.85583 32.8958 8.68083 31.9192C7.50583 30.9425 9.46417 21.3742 12.2058 21.3742C14.1083 21.3742 14.1775 23.6592 14.1675 24.9992H14.2033C14.3937 24.9902 14.5826 24.9609 14.7667 24.9117C14.8858 24.8767 14.9608 24.84 15 24.8142V20.8333H16.6667V24.8142C16.7058 24.8392 16.7808 24.8767 16.9 24.9117C17.0669 24.9573 17.2381 24.9855 17.4108 24.9958C17.4017 23.6542 17.4725 21.3742 19.3733 21.3742C22.115 21.3742 24.0733 30.9433 22.8983 31.9192C21.7233 32.8958 19.3733 32.31 18.1983 31.1383C17.3025 30.245 17.325 28.2217 17.3808 26.6633ZM14.1667 25.2008V25.1383L14.1675 25.725C14.1638 25.5503 14.163 25.3755 14.1667 25.2008ZM20.8333 15C20.8333 15.221 20.7455 15.433 20.5893 15.5893C20.433 15.7455 20.221 15.8333 20 15.8333C19.779 15.8333 19.567 15.7455 19.4107 15.5893C19.2545 15.433 19.1667 15.221 19.1667 15C19.1667 14.779 19.2545 14.567 19.4107 14.4107C19.567 14.2545 19.779 14.1667 20 14.1667C20.221 14.1667 20.433 14.2545 20.5893 14.4107C20.7455 14.567 20.8333 14.779 20.8333 15ZM17.5 15C17.721 15 17.933 14.9122 18.0893 14.7559C18.2455 14.5996 18.3333 14.3877 18.3333 14.1667C18.3333 13.9457 18.2455 13.7337 18.0893 13.5774C17.933 13.4211 17.721 13.3333 17.5 13.3333C17.279 13.3333 17.067 13.4211 16.9107 13.5774C16.7545 13.7337 16.6667 13.9457 16.6667 14.1667C16.6667 14.3877 16.7545 14.5996 16.9107 14.7559C17.067 14.9122 17.279 15 17.5 15Z" fill="black"/>
<path d="M26.6667 11.6667C26.6667 11.8877 26.5789 12.0996 26.4226 12.2559C26.2664 12.4122 26.0544 12.5 25.8334 12.5C25.6124 12.5 25.4004 12.4122 25.2441 12.2559C25.0878 12.0996 25 11.8877 25 11.6667C25 11.4457 25.0878 11.2337 25.2441 11.0774C25.4004 10.9211 25.6124 10.8333 25.8334 10.8333C26.0544 10.8333 26.2664 10.9211 26.4226 11.0774C26.5789 11.2337 26.6667 11.4457 26.6667 11.6667ZM28.3334 14.1667C28.3334 14.3877 28.2456 14.5996 28.0893 14.7559C27.933 14.9122 27.7211 15 27.5 15C27.279 15 27.0671 14.9122 26.9108 14.7559C26.7545 14.5996 26.6667 14.3877 26.6667 14.1667C26.6667 13.9457 26.7545 13.7337 26.9108 13.5774C27.0671 13.4211 27.279 13.3333 27.5 13.3333C27.7211 13.3333 27.933 13.4211 28.0893 13.5774C28.2456 13.7337 28.3334 13.9457 28.3334 14.1667ZM30 16.6667C30 16.8877 29.9122 17.0996 29.756 17.2559C29.5997 17.4122 29.3877 17.5 29.1667 17.5C28.9457 17.5 28.7337 17.4122 28.5775 17.2559C28.4212 17.0996 28.3334 16.8877 28.3334 16.6667C28.3334 16.4457 28.4212 16.2337 28.5775 16.0774C28.7337 15.9211 28.9457 15.8333 29.1667 15.8333C29.3877 15.8333 29.5997 15.9211 29.756 16.0774C29.9122 16.2337 30 16.4457 30 16.6667ZM35 15.8333C35 16.0543 34.9122 16.2663 34.756 16.4226C34.5997 16.5789 34.3877 16.6667 34.1667 16.6667C33.9457 16.6667 33.7337 16.5789 33.5775 16.4226C33.4212 16.2663 33.3334 16.0543 33.3334 15.8333C33.3334 15.6123 33.4212 15.4004 33.5775 15.2441C33.7337 15.0878 33.9457 15 34.1667 15C34.3877 15 34.5997 15.0878 34.756 15.2441C34.9122 15.4004 35 15.6123 35 15.8333ZM35 11.6667C35 11.8877 34.9122 12.0996 34.756 12.2559C34.5997 12.4122 34.3877 12.5 34.1667 12.5C33.9457 12.5 33.7337 12.4122 33.5775 12.2559C33.4212 12.0996 33.3334 11.8877 33.3334 11.6667C33.3334 11.4457 33.4212 11.2337 33.5775 11.0774C33.7337 10.9211 33.9457 10.8333 34.1667 10.8333C34.3877 10.8333 34.5997 10.9211 34.756 11.0774C34.9122 11.2337 35 11.4457 35 11.6667ZM35 8.33333C35 8.55435 34.9122 8.76631 34.756 8.92259C34.5997 9.07887 34.3877 9.16667 34.1667 9.16667C33.9457 9.16667 33.7337 9.07887 33.5775 8.92259C33.4212 8.76631 33.3334 8.55435 33.3334 8.33333C33.3334 8.11232 33.4212 7.90036 33.5775 7.74408C33.7337 7.5878 33.9457 7.5 34.1667 7.5C34.3877 7.5 34.5997 7.5878 34.756 7.74408C34.9122 7.90036 35 8.11232 35 8.33333ZM31.6667 10C31.6667 10.221 31.5789 10.433 31.4226 10.5893C31.2664 10.7455 31.0544 10.8333 30.8334 10.8333C30.6124 10.8333 30.4004 10.7455 30.2441 10.5893C30.0878 10.433 30 10.221 30 10C30 9.77899 30.0878 9.56702 30.2441 9.41074C30.4004 9.25446 30.6124 9.16667 30.8334 9.16667C31.0544 9.16667 31.2664 9.25446 31.4226 9.41074C31.5789 9.56702 31.6667 9.77899 31.6667 10ZM31.6667 13.3333C31.6667 13.5543 31.5789 13.7663 31.4226 13.9226C31.2664 14.0789 31.0544 14.1667 30.8334 14.1667C30.6124 14.1667 30.4004 14.0789 30.2441 13.9226C30.0878 13.7663 30 13.5543 30 13.3333C30 13.1123 30.0878 12.9004 30.2441 12.7441C30.4004 12.5878 30.6124 12.5 30.8334 12.5C31.0544 12.5 31.2664 12.5878 31.4226 12.7441C31.5789 12.9004 31.6667 13.1123 31.6667 13.3333ZM25 15.8333C25 16.0543 24.9122 16.2663 24.756 16.4226C24.5997 16.5789 24.3877 16.6667 24.1667 16.6667C23.9457 16.6667 23.7337 16.5789 23.5775 16.4226C23.4212 16.2663 23.3334 16.0543 23.3334 15.8333C23.3334 15.6123 23.4212 15.4004 23.5775 15.2441C23.7337 15.0878 23.9457 15 24.1667 15C24.3877 15 24.5997 15.0878 24.756 15.2441C24.9122 15.4004 25 15.6123 25 15.8333Z" fill="black"/>
</svg>
