<svg width="36" height="36" viewBox="0 0 36 36" fill="none" xmlns="http://www.w3.org/2000/svg">
<path fill-rule="evenodd" clip-rule="evenodd" d="M7.96799 16.143C12.345 8.3805 14.5335 4.5 18 4.5C21.4665 4.5 23.655 8.3805 28.032 16.143L28.578 17.109C32.2155 23.559 34.035 26.784 32.391 29.142C30.747 31.5 26.679 31.5 18.546 31.5H17.454C9.32099 31.5 5.25299 31.5 3.60899 29.142C1.96499 26.784 3.78449 23.559 7.42199 17.109L7.96799 16.143ZM18 10.875C18.2984 10.875 18.5845 10.9935 18.7955 11.2045C19.0065 11.4155 19.125 11.7016 19.125 12V19.5C19.125 19.7984 19.0065 20.0845 18.7955 20.2955C18.5845 20.5065 18.2984 20.625 18 20.625C17.7016 20.625 17.4155 20.5065 17.2045 20.2955C16.9935 20.0845 16.875 19.7984 16.875 19.5V12C16.875 11.7016 16.9935 11.4155 17.2045 11.2045C17.4155 10.9935 17.7016 10.875 18 10.875ZM18 25.5C18.3978 25.5 18.7793 25.342 19.0607 25.0607C19.342 24.7794 19.5 24.3978 19.5 24C19.5 23.6022 19.342 23.2206 19.0607 22.9393C18.7793 22.658 18.3978 22.5 18 22.5C17.6022 22.5 17.2206 22.658 16.9393 22.9393C16.658 23.2206 16.5 23.6022 16.5 24C16.5 24.3978 16.658 24.7794 16.9393 25.0607C17.2206 25.342 17.6022 25.5 18 25.5Z" fill="black"/>
</svg>
