<svg width="16" height="16" viewBox="0 0 16 16" fill="none" xmlns="http://www.w3.org/2000/svg">
<path d="M2 8.66666C4.4 3.33332 11.6 3.33332 14 8.66666" stroke="#81C784" stroke-linecap="round" stroke-linejoin="round"/>
<path d="M8 11.3333C7.73736 11.3333 7.47728 11.2816 7.23463 11.1811C6.99198 11.0806 6.7715 10.9332 6.58579 10.7475C6.40007 10.5618 6.25275 10.3413 6.15224 10.0987C6.05173 9.85603 6 9.59596 6 9.33331C6 9.07067 6.05173 8.8106 6.15224 8.56795C6.25275 8.32529 6.40007 8.10482 6.58579 7.9191C6.7715 7.73338 6.99198 7.58606 7.23463 7.48555C7.47728 7.38504 7.73736 7.33331 8 7.33331C8.53043 7.33331 9.03914 7.54403 9.41421 7.9191C9.78929 8.29417 10 8.80288 10 9.33331C10 9.86375 9.78929 10.3725 9.41421 10.7475C9.03914 11.1226 8.53043 11.3333 8 11.3333Z" stroke="#81C784" stroke-linecap="round" stroke-linejoin="round"/>
</svg>
