<svg width="16" height="16" viewBox="0 0 16 16" fill="none" xmlns="http://www.w3.org/2000/svg">
<path d="M10.12 10.827L14.146 14.854C14.1925 14.9005 14.2477 14.9374 14.3084 14.9625C14.3692 14.9877 14.4343 15.0006 14.5 15.0006C14.5658 15.0006 14.6309 14.9877 14.6916 14.9625C14.7523 14.9374 14.8075 14.9005 14.854 14.854C14.9005 14.8075 14.9374 14.7523 14.9625 14.6916C14.9877 14.6308 15.0007 14.5657 15.0007 14.5C15.0007 14.4342 14.9877 14.3691 14.9625 14.3084C14.9374 14.2477 14.9005 14.1925 14.854 14.146L1.85402 1.14599C1.80753 1.0995 1.75234 1.06263 1.6916 1.03747C1.63087 1.01231 1.56577 0.999359 1.50002 0.999359C1.43428 0.999359 1.36918 1.01231 1.30844 1.03747C1.2477 1.06263 1.19251 1.0995 1.14602 1.14599C1.09953 1.19248 1.06266 1.24767 1.0375 1.30841C1.01234 1.36915 0.99939 1.43425 0.99939 1.49999C0.99939 1.56573 1.01234 1.63083 1.0375 1.69157C1.06266 1.75231 1.09953 1.8075 1.14602 1.85399L4.37602 5.08399C3.9365 5.39554 3.54095 5.76485 3.20002 6.18199C2.71742 6.77415 2.33964 7.44448 2.08302 8.16399C2.06202 8.22499 2.03602 8.30899 2.03602 8.30899L2.01802 8.37099C2.01802 8.37099 1.94202 8.86799 2.37302 8.98199C2.50112 9.01585 2.63741 8.99748 2.75198 8.93092C2.86654 8.86435 2.95 8.75504 2.98402 8.62699L2.98502 8.62399L2.99302 8.59899L3.02802 8.48999C3.24598 7.88252 3.56552 7.31647 3.97302 6.81599C4.29405 6.4229 4.67306 6.08099 5.09702 5.80199L6.67502 7.37999C6.35658 7.57958 6.08724 7.84839 5.88703 8.16643C5.68681 8.48447 5.56088 8.84356 5.51859 9.21699C5.4763 9.59042 5.51875 9.96857 5.64277 10.3233C5.76679 10.6781 5.9692 11.0003 6.23494 11.2661C6.50068 11.5318 6.82292 11.7342 7.17768 11.8582C7.53244 11.9823 7.9106 12.0247 8.28402 11.9824C8.65745 11.9401 9.01654 11.8142 9.33458 11.614C9.65262 11.4138 9.92144 11.1444 10.121 10.826M9.38102 10.086C9.28515 10.312 9.13525 10.5111 8.94449 10.6657C8.75372 10.8203 8.52792 10.9257 8.2869 10.9727C8.04589 11.0196 7.79703 11.0067 7.56218 10.935C7.32733 10.8633 7.11367 10.7351 6.93995 10.5615C6.76624 10.388 6.63778 10.1745 6.56586 9.93969C6.49394 9.70492 6.48075 9.45608 6.52746 9.21501C6.57417 8.97395 6.67934 8.74804 6.83375 8.55712C6.98815 8.36619 7.18706 8.21609 7.41302 8.11999L9.38102 10.086ZM6.32002 4.19999L7.17402 5.05399C7.43402 5.01799 7.70935 4.99999 8.00002 4.99999C10.044 4.99999 11.286 5.91199 12.028 6.81699C12.4355 7.31747 12.7551 7.88352 12.973 8.49099C12.9897 8.53966 13.0014 8.57599 13.008 8.59999L13.016 8.62499V8.62799L13.017 8.62899C13.054 8.75379 13.1382 8.85924 13.2518 8.92293C13.3653 8.98662 13.4992 9.00353 13.6249 8.97006C13.7507 8.93659 13.8585 8.85539 13.9254 8.74371C13.9923 8.63203 14.0129 8.49868 13.983 8.37199V8.36899L13.982 8.36499L13.978 8.35199C13.9611 8.28871 13.9411 8.2263 13.918 8.16499C13.6614 7.44548 13.2836 6.77515 12.801 6.18299C11.905 5.08899 10.396 3.99999 8.00202 3.99999C7.38402 3.99999 6.82502 4.07199 6.32102 4.19899" fill="#81C784"/>
</svg>
