<svg width="17" height="17" viewBox="0 0 17 17" fill="none" xmlns="http://www.w3.org/2000/svg">
<path opacity="0.987" fill-rule="evenodd" clip-rule="evenodd" d="M7.65956 1.12732C8.42988 1.04126 8.88569 1.04126 9.71338 1.12732C11.1785 1.34417 12.5367 2.0214 13.5915 3.06107C12.8787 3.73484 12.1753 4.41845 11.4814 5.1117C10.1525 3.98545 8.66929 3.72549 7.03163 4.33182C5.83029 4.88432 4.99375 5.77965 4.522 7.01782C3.75109 6.44389 2.99023 5.85659 2.23975 5.2562C2.1876 5.22874 2.12803 5.21869 2.06975 5.22751C3.26188 2.92897 5.12479 1.56188 7.6585 1.12626" fill="#F44336"/>
<path opacity="0.997" fill-rule="evenodd" clip-rule="evenodd" d="M2.06763 5.22751C2.12783 5.2183 2.18486 5.22786 2.23869 5.2562C2.98917 5.85659 3.75003 6.44389 4.52094 7.01782C4.39963 7.50026 4.32316 7.99287 4.2925 8.48938C4.31871 8.96963 4.39486 9.44103 4.52094 9.90357L2.125 11.8108C1.08163 9.63051 1.0625 7.43609 2.06763 5.22751Z" fill="#FFC107"/>
<path opacity="0.999" fill-rule="evenodd" clip-rule="evenodd" d="M13.4778 14.1206C12.7318 13.4627 11.9508 12.8456 11.1382 12.2719C11.9528 11.6967 12.4472 10.9076 12.6214 9.90463H8.62962V7.13256C10.9317 7.11344 13.2327 7.13292 15.5327 7.191C15.969 9.56038 15.465 11.6967 14.0207 13.6C13.849 13.7826 13.6671 13.9563 13.4778 14.1206Z" fill="#448AFF"/>
<path opacity="0.993" fill-rule="evenodd" clip-rule="evenodd" d="M4.52094 9.90463C5.39219 12.07 6.98948 13.0808 9.31281 12.937C9.96501 12.8615 10.5903 12.6337 11.1382 12.2719C11.9514 12.847 12.7312 13.4633 13.4778 14.1206C12.2949 15.1836 10.7866 15.8143 9.19912 15.9099C8.83845 15.9387 8.47605 15.9387 8.11538 15.9099C5.41096 15.5911 3.41417 14.2248 2.125 11.8108L4.52094 9.90463Z" fill="#43A047"/>
</svg>
