<svg width="36" height="36" viewBox="0 0 36 36" fill="none" xmlns="http://www.w3.org/2000/svg">
<g clip-path="url(#clip0_22_17)">
<path d="M17.7675 34.443V7.47751H1.33203V34.443H17.7675ZM17.7675 34.443H29.8065V22.5855H17.7675V34.443ZM7.33953 19.29V12.6555M11.76 12.6555V19.287M7.33953 15.696H11.76M34.668 7.07101C34.668 10.122 29.154 17.487 29.154 17.487C29.154 17.487 23.64 10.122 23.64 7.07101C23.64 5.6086 24.221 4.2061 25.255 3.17202C26.2891 2.13794 27.6916 1.55701 29.154 1.55701C30.6164 1.55701 32.0189 2.13794 33.053 3.17202C34.0871 4.2061 34.668 5.6086 34.668 7.07101Z" stroke="black" stroke-width="2.25" stroke-linecap="round" stroke-linejoin="round"/>
<path d="M29.1556 7.77601C28.9825 7.77601 28.8165 7.70726 28.6942 7.5849C28.5718 7.46253 28.5031 7.29656 28.5031 7.12351C28.5031 6.95045 28.5718 6.78449 28.6942 6.66212C28.8165 6.53975 28.9825 6.47101 29.1556 6.47101" stroke="black" stroke-width="2.25" stroke-linecap="round" stroke-linejoin="round"/>
<path d="M29.154 7.77601C29.3271 7.77601 29.4931 7.70726 29.6154 7.5849C29.7378 7.46253 29.8065 7.29656 29.8065 7.12351C29.8065 6.95045 29.7378 6.78449 29.6154 6.66212C29.4931 6.53975 29.3271 6.47101 29.154 6.47101M9.55054 34.443V29.784" stroke="black" stroke-width="2.25" stroke-linecap="round" stroke-linejoin="round"/>
</g>
<defs>
<clipPath id="clip0_22_17">
<rect width="36" height="36" fill="white"/>
</clipPath>
</defs>
</svg>
