<svg width="16" height="16" viewBox="0 0 16 16" fill="none" xmlns="http://www.w3.org/2000/svg">
<path d="M4.39998 6.66666H11.6C12.1866 6.66666 12.6666 7.14666 12.6666 7.73332V12.4C12.6666 13.28 11.9466 14 11.0666 14H4.93331C4.05331 14 3.33331 13.28 3.33331 12.4V7.73332C3.33331 7.14666 3.81331 6.66666 4.39998 6.66666Z" fill="black" fill-opacity="0.16"/>
<path d="M5.33331 6.66667V4.66667C5.33331 3.19333 6.52665 2 7.99998 2C9.47331 2 10.6666 3.19333 10.6666 4.66667V6.66667M7.99998 10C8.17679 10 8.34636 9.92976 8.47138 9.80474C8.59641 9.67971 8.66665 9.51014 8.66665 9.33333C8.66665 9.15652 8.59641 8.98695 8.47138 8.86193C8.34636 8.7369 8.17679 8.66667 7.99998 8.66667C7.82317 8.66667 7.6536 8.7369 7.52858 8.86193C7.40355 8.98695 7.33331 9.15652 7.33331 9.33333C7.33331 9.51014 7.40355 9.67971 7.52858 9.80474C7.6536 9.92976 7.82317 10 7.99998 10ZM7.99998 10V12M4.39998 6.66667H11.6C12.1866 6.66667 12.6666 7.14667 12.6666 7.73333V12.4C12.6666 13.28 11.9466 14 11.0666 14H4.93331C4.05331 14 3.33331 13.28 3.33331 12.4V7.73333C3.33331 7.14667 3.81331 6.66667 4.39998 6.66667Z" stroke="#81C784" stroke-miterlimit="10" stroke-linecap="round" stroke-linejoin="round"/>
</svg>
