<svg width="16" height="16" viewBox="0 0 16 16" fill="none" xmlns="http://www.w3.org/2000/svg">
<path d="M13.004 5.30666C12.5284 7.16164 11.563 8.85474 10.2089 10.2088C8.85477 11.563 7.16167 12.5283 5.30669 13.004C3.87935 13.3673 2.66669 12.14 2.66669 10.6667V9.99999C2.66669 9.63199 2.96602 9.33666 3.33202 9.29999C3.93895 9.23966 4.53473 9.09632 5.10269 8.87399L6.11602 9.88732C7.76593 9.09638 9.09641 7.7659 9.88735 6.11599L8.87402 5.10266C9.09658 4.53473 9.24014 3.93895 9.30069 3.33199C9.33669 2.96532 9.63202 2.66666 10 2.66666H10.6667C12.14 2.66666 13.3674 3.87932 13.004 5.30666Z" stroke="#81C784" stroke-linecap="round" stroke-linejoin="round"/>
</svg>
