<svg width="17" height="17" viewBox="0 0 17 17" fill="none" xmlns="http://www.w3.org/2000/svg">
<path d="M14.2525 12.677C13.9393 11.9351 13.4848 11.2613 12.9144 10.6931C12.3457 10.1231 11.672 9.66875 10.9305 9.35498C10.9238 9.35166 10.9172 9.35 10.9106 9.34668C11.9448 8.59961 12.6172 7.38271 12.6172 6.00977C12.6172 3.73535 10.7744 1.89258 8.50001 1.89258C6.2256 1.89258 4.38282 3.73535 4.38282 6.00977C4.38282 7.38271 5.05519 8.59961 6.08946 9.34834C6.08282 9.35166 6.07618 9.35332 6.06954 9.35664C5.32579 9.67041 4.65841 10.1203 4.08566 10.6947C3.51573 11.2634 3.06134 11.9371 2.74757 12.6786C2.43932 13.4045 2.27307 14.1828 2.25782 14.9713C2.25738 14.989 2.26049 15.0066 2.26696 15.0231C2.27344 15.0396 2.28315 15.0547 2.29553 15.0674C2.30791 15.08 2.3227 15.0901 2.33903 15.097C2.35537 15.1039 2.37291 15.1074 2.39064 15.1074H3.38673C3.45978 15.1074 3.51788 15.0493 3.51954 14.9779C3.55275 13.6963 4.06739 12.496 4.97716 11.5862C5.91847 10.6449 7.16857 10.127 8.50001 10.127C9.83146 10.127 11.0816 10.6449 12.0229 11.5862C12.9326 12.496 13.4473 13.6963 13.4805 14.9779C13.4821 15.051 13.5402 15.1074 13.6133 15.1074H14.6094C14.6271 15.1074 14.6447 15.1039 14.661 15.097C14.6773 15.0901 14.6921 15.08 14.7045 15.0674C14.7169 15.0547 14.7266 15.0396 14.7331 15.0231C14.7395 15.0066 14.7426 14.989 14.7422 14.9713C14.7256 14.1777 14.5612 13.4058 14.2525 12.677ZM8.50001 8.86523C7.738 8.86523 7.02081 8.56807 6.48126 8.02852C5.94171 7.48897 5.64454 6.77178 5.64454 6.00977C5.64454 5.24775 5.94171 4.53057 6.48126 3.99102C7.02081 3.45146 7.738 3.1543 8.50001 3.1543C9.26202 3.1543 9.97921 3.45146 10.5188 3.99102C11.0583 4.53057 11.3555 5.24775 11.3555 6.00977C11.3555 6.77178 11.0583 7.48897 10.5188 8.02852C9.97921 8.56807 9.26202 8.86523 8.50001 8.86523Z" fill="#81C784"/>
</svg>
